<mxfile host="app.diagrams.net" modified="2024-05-28T06:12:23.140Z" agent="Mozilla/5.0 (Macintosh; Intel Mac OS X 10_15_7) AppleWebKit/537.36 (KHTML, like Gecko) Chrome/124.0.0.0 Safari/537.36" etag="gM0U_JgUtv6a9wD5hq1E" version="24.4.9" type="github">
  <diagram name="第 1 页" id="SflQOrWPmLvVgYgXK1FL">
    <mxGraphModel dx="1193" dy="886" grid="1" gridSize="10" guides="1" tooltips="1" connect="1" arrows="1" fold="1" page="1" pageScale="1" pageWidth="827" pageHeight="1169" math="0" shadow="0">
      <root>
        <mxCell id="0" />
        <mxCell id="1" parent="0" />
        <mxCell id="EbQ0bD7Sx69nWCIX-Ivi-5" value="" style="group" vertex="1" connectable="0" parent="1">
          <mxGeometry x="10" y="130" width="480" height="480" as="geometry" />
        </mxCell>
        <mxCell id="EbQ0bD7Sx69nWCIX-Ivi-1" value="新运单" style="rounded=0;whiteSpace=wrap;html=1;" vertex="1" parent="EbQ0bD7Sx69nWCIX-Ivi-5">
          <mxGeometry width="109.0909090909091" height="480" as="geometry" />
        </mxCell>
        <mxCell id="EbQ0bD7Sx69nWCIX-Ivi-2" value="新任务列表" style="rounded=0;whiteSpace=wrap;html=1;" vertex="1" parent="EbQ0bD7Sx69nWCIX-Ivi-5">
          <mxGeometry x="123.63636363636363" width="109.0909090909091" height="480" as="geometry" />
        </mxCell>
        <mxCell id="EbQ0bD7Sx69nWCIX-Ivi-3" value="待取货列表" style="rounded=0;whiteSpace=wrap;html=1;" vertex="1" parent="EbQ0bD7Sx69nWCIX-Ivi-5">
          <mxGeometry x="247.27272727272725" width="109.0909090909091" height="480" as="geometry" />
        </mxCell>
        <mxCell id="EbQ0bD7Sx69nWCIX-Ivi-4" value="待送达列表" style="rounded=0;whiteSpace=wrap;html=1;" vertex="1" parent="EbQ0bD7Sx69nWCIX-Ivi-5">
          <mxGeometry x="370.90909090909093" width="109.0909090909091" height="480" as="geometry" />
        </mxCell>
        <mxCell id="EbQ0bD7Sx69nWCIX-Ivi-7" value="新运单" style="rounded=1;whiteSpace=wrap;html=1;" vertex="1" parent="EbQ0bD7Sx69nWCIX-Ivi-5">
          <mxGeometry x="16.55" y="330" width="76" height="40" as="geometry" />
        </mxCell>
        <mxCell id="EbQ0bD7Sx69nWCIX-Ivi-8" value="推单待抢" style="rounded=1;whiteSpace=wrap;html=1;" vertex="1" parent="EbQ0bD7Sx69nWCIX-Ivi-5">
          <mxGeometry x="140.18" y="330" width="76" height="40" as="geometry" />
        </mxCell>
        <mxCell id="EbQ0bD7Sx69nWCIX-Ivi-9" value="待取货" style="rounded=1;whiteSpace=wrap;html=1;" vertex="1" parent="EbQ0bD7Sx69nWCIX-Ivi-5">
          <mxGeometry x="263.82" y="330" width="76" height="40" as="geometry" />
        </mxCell>
        <mxCell id="EbQ0bD7Sx69nWCIX-Ivi-10" value="待&lt;span style=&quot;color: rgba(0, 0, 0, 0); font-family: monospace; font-size: 0px; text-align: start; text-wrap: nowrap;&quot;&gt;%3CmxGraphModel%3E%3Croot%3E%3CmxCell%20id%3D%220%22%2F%3E%3CmxCell%20id%3D%221%22%20parent%3D%220%22%2F%3E%3CmxCell%20id%3D%222%22%20value%3D%22%E5%BE%85%E5%8F%96%E8%B4%A7%22%20style%3D%22rounded%3D1%3BwhiteSpace%3Dwrap%3Bhtml%3D1%3B%22%20vertex%3D%221%22%20parent%3D%221%22%3E%3CmxGeometry%20x%3D%22273.82%22%20y%3D%22460%22%20width%3D%2276%22%20height%3D%2240%22%20as%3D%22geometry%22%2F%3E%3C%2FmxCell%3E%3C%2Froot%3E%3C%2FmxGraphModel%3E&lt;/span&gt;送达" style="rounded=1;whiteSpace=wrap;html=1;" vertex="1" parent="EbQ0bD7Sx69nWCIX-Ivi-5">
          <mxGeometry x="387.45" y="330" width="76" height="40" as="geometry" />
        </mxCell>
        <mxCell id="EbQ0bD7Sx69nWCIX-Ivi-6" value="历史订单" style="rounded=0;whiteSpace=wrap;html=1;" vertex="1" parent="1">
          <mxGeometry x="509.9990909090909" y="130" width="109.0909090909091" height="480" as="geometry" />
        </mxCell>
        <mxCell id="EbQ0bD7Sx69nWCIX-Ivi-11" value="已取货" style="rounded=1;whiteSpace=wrap;html=1;" vertex="1" parent="1">
          <mxGeometry x="526.54" y="460" width="76" height="40" as="geometry" />
        </mxCell>
      </root>
    </mxGraphModel>
  </diagram>
</mxfile>
